<svg width="29" height="23" fill="none" xmlns="http://www.w3.org/2000/svg"><path d="M3.051.28s12.25 1.526 16.514 2.03c1.652.168 7.174.857 7.174.857s2.516.367.906 2.453c-.65.867-3.168 3.743-5.855 6.877-3.84 4.41-8.03 9.238-8.03 9.238s-1.088 1.412-2.165 1.07c-1.077-.342-1.801-2.49-1.897-2.924-.085-.335-1.95-5.74-2.396-8.075-.117-.634-.032-1.69 1.418-2.027 3.327-.857 7.367-1.983 9.862-2.742 1.152-.35 2.986-1.732-1.13-1.304-5.874.654-11.567 1.15-11.567 1.15s-1.28.08-2.494-1.559A117.21 117.21 0 0 1 .822 1.678S.183-.136 3.052.279Z" fill="#558DFF"/></svg>