<svg width="75" height="15" viewBox="0 0 75 15" fill="none" xmlns="http://www.w3.org/2000/svg">
<path d="M7.66884 12.2854L7.50003 12.1966L7.33121 12.2854L2.86478 14.6337L3.7178 9.65983L3.75003 9.47186L3.61348 9.33874L0 5.81619L4.99369 5.0905L5.18241 5.06308L5.2668 4.89207L7.50003 0.366699L9.73322 4.89207L9.81759 5.06308L10.0064 5.0905L15 5.81619L11.3865 9.33874L11.25 9.47186L11.2822 9.65983L12.1352 14.6337L7.66884 12.2854Z" fill="#F2B72C"/>
<path d="M22.6688 12.2854L22.5 12.1966L22.3312 12.2854L17.8648 14.6337L18.7178 9.65983L18.75 9.47186L18.6135 9.33874L15 5.81619L19.9937 5.0905L20.1824 5.06308L20.2668 4.89207L22.5 0.366699L24.7332 4.89207L24.8176 5.06308L25.0064 5.0905L30 5.81619L26.3865 9.33874L26.25 9.47186L26.2822 9.65983L27.1352 14.6337L22.6688 12.2854Z" fill="#F2B72C"/>
<path d="M37.6688 12.2854L37.5 12.1966L37.3312 12.2854L32.8648 14.6337L33.7178 9.65983L33.75 9.47186L33.6135 9.33874L30 5.81619L34.9937 5.0905L35.1824 5.06308L35.2668 4.89207L37.5 0.366699L39.7332 4.89207L39.8176 5.06308L40.0064 5.0905L45 5.81619L41.3865 9.33874L41.25 9.47186L41.2822 9.65983L42.1352 14.6337L37.6688 12.2854Z" fill="#F2B72C"/>
<path d="M52.6688 12.2854L52.5 12.1966L52.3312 12.2854L47.8648 14.6337L48.7178 9.65983L48.75 9.47186L48.6135 9.33874L45 5.81619L49.9937 5.0905L50.1824 5.06308L50.2668 4.89207L52.5 0.366699L54.7332 4.89207L54.8176 5.06308L55.0064 5.0905L60 5.81619L56.3865 9.33874L56.25 9.47186L56.2822 9.65983L57.1352 14.6337L52.6688 12.2854Z" fill="#F2B72C"/>
<path d="M67.6688 12.2854L67.5 12.1966L67.3312 12.2854L62.8648 14.6337L63.7178 9.65983L63.75 9.47186L63.6135 9.33874L60 5.81619L64.9937 5.0905L65.1824 5.06308L65.2668 4.89207L67.5 0.366699L69.7332 4.89207L69.8176 5.06308L70.0064 5.0905L75 5.81619L71.3865 9.33874L71.25 9.47186L71.2822 9.65983L72.1352 14.6337L67.6688 12.2854Z" fill="#F2B72C"/>
</svg>
